<svg width="128" height="128" viewBox="0 0 24 24" fill="none" xmlns="http://www.w3.org/2000/svg">
  <defs>
    <linearGradient id="grad1" x1="0%" y1="0%" x2="100%" y2="100%">
      <stop offset="0%" style="stop-color:#667eea;stop-opacity:1" />
      <stop offset="50%" style="stop-color:#6a82fb;stop-opacity:1" />
      <stop offset="100%" style="stop-color:#764ba2;stop-opacity:1" />
    </linearGradient>
    <filter id="glow" x="-50%" y="-50%" width="200%" height="200%">
      <feGaussianBlur stdDeviation="0.3" result="coloredBlur"/>
      <feMerge> 
        <feMergeNode in="coloredBlur"/>
        <feMergeNode in="SourceGraphic"/>
      </feMerge>
    </filter>
    <filter id="shadow" x="-50%" y="-50%" width="200%" height="200%">
      <feDropShadow dx="0" dy="1" stdDeviation="1" flood-color="rgba(0,0,0,0.3)"/>
    </filter>
  </defs>
  
  <!-- Background circle for depth -->
  <circle cx="12" cy="12" r="11" fill="rgba(102, 126, 234, 0.1)" filter="url(#shadow)"/>
  
  <!-- Main nest/shield shape -->
  <path d="M12 2L3 7v10c0 5.55 3.84 9.74 9 9 5.16.74 9-3.45 9-9V7l-9-5z" fill="url(#grad1)" stroke="rgba(255,255,255,0.8)" stroke-width="0.2" filter="url(#glow)"/>
  
  <!-- Inner highlight -->
  <path d="M12 3.5L4.5 7.8v9.2c0 4.8 3.2 8.2 7.5 7.5 4.3.7 7.5-2.7 7.5-7.5V7.8L12 3.5z" fill="none" stroke="rgba(255,255,255,0.3)" stroke-width="0.5"/>
  
  <!-- Dollar sign -->
  <g filter="url(#glow)">
    <path d="M12 6v2m0 8v2m-1-9h2.5a1.5 1.5 0 0 1 0 3H12m0 0h2.5a1.5 1.5 0 0 1 0 3H11" stroke="#fff" stroke-width="1" stroke-linecap="round" stroke-linejoin="round" fill="none"/>
  </g>
  
  <!-- Decorative elements with varying opacity -->
  <circle cx="7" cy="9" r="0.8" fill="rgba(255,255,255,0.8)" filter="url(#glow)"/>
  <circle cx="17" cy="13" r="0.8" fill="rgba(255,255,255,0.8)" filter="url(#glow)"/>
  <circle cx="8" cy="16" r="0.5" fill="rgba(255,255,255,0.6)"/>
  <circle cx="16" cy="8" r="0.5" fill="rgba(255,255,255,0.6)"/>
  <circle cx="6" cy="13" r="0.3" fill="rgba(255,255,255,0.4)"/>
  <circle cx="18" cy="10" r="0.3" fill="rgba(255,255,255,0.4)"/>
  
  <!-- Subtle sparkle effects -->
  <g fill="rgba(255,255,255,0.9)" filter="url(#glow)">
    <path d="M9 7l0.5 1.5L11 9l-1.5 0.5L9 11l-0.5-1.5L7 9l1.5-0.5z" transform="scale(0.3)"/>
    <path d="M15 15l0.5 1.5L17 17l-1.5 0.5L15 19l-0.5-1.5L13 17l1.5-0.5z" transform="scale(0.25)"/>
  </g>
</svg>